<svg xmlns="http://www.w3.org/2000/svg" xmlns:xlink="http://www.w3.org/1999/xlink" viewBox="0 0 136 136">
  <defs>
    <clipPath id="A">
      <path fill="none" d="M29 10a5 5 0 0 0-2 0h-4a9 9 0 0 0-2 1 2 2 0 0 1-1 0h-7l-1 1v19a25 25 0 0 0 1 3v17l1 6a18 18 0 0 0 0 2 2 2 0 0 0 1 1h2l2-1v-6l1-12h4l2-1v-6h-4a16 16 0 0 1-2 0l1-7v-3l1-5h-1l1-1a1 1 0 0 0 0 1h6a5 5 0 0 0 1-1v-8z"/>
    </clipPath>
    <clipPath id="B">
      <path fill="none" d="M51 10a5 5 0 0 0-2 0h-4a9 9 0 0 0-2 1 2 2 0 0 1-1 0h-7l-1 1v19a25 25 0 0 0 1 3v17l1 6a18 18 0 0 0 0 2 2 2 0 0 0 1 1h2l2-1 2 1h2v-1a22 22 0 0 0 4 0 6 6 0 0 0 2 0l2-1v-3l-1-2a1 1 0 0 0-1-1h-5a1 1 0 0 0-1 0h-2v1h-2l1-12h4l2-1v-6h-4a16 16 0 0 1-2 0v-7l1-3v-5c0-1 0 0 0 0v-1a1 1 0 0 0 1 1h5l1-1a5 5 0 0 0 1 0v-8z"/>
    </clipPath>
    <clipPath id="C">
      <path fill="none" d="m78 28-4-11s-10-7-11-6a13 13 0 0 1-2 0 20 20 0 0 0-2 0l-2 1a4 4 0 0 0-1 1l1 7a12 12 0 0 0 0 2 39 39 0 0 1 0 5v14a41 41 0 0 0 1 5v7a13 13 0 0 0 1 2 8 8 0 0 0 2 3 5 5 0 0 0 2 1 28 28 0 0 0 4 1 33 33 0 0 0 5 0 14 14 0 0 0 2-1 8 8 0 0 0 2-1l3-4 2-7 1-12c0-3-4-5-4-7zm-5 20-5 4h-3l-1-4 1-8V22l3 1 4 7 2 8z"/>
    </clipPath>
    <clipPath id="D">
      <path fill="none" d="m135 53 1-13-10-1-6-2-1-4-6-1-6-7 2-7-5-8V3L85 5 72 2l-7-2H1l1 17-2 34 2 29-2 21 1 7-1 28 19-2 10 2 4-1h102v-9l1-17-1-39z"/>
    </clipPath>
    <path id="E" d="M34 8h-2v1h-1V8h-1 1a1 1 0 0 0 0-1 2 2 0 0 1 1 0h1v1-1a1 1 0 0 1 0 1h1a1 1 0 0 1 1 0h-1a1 1 0 0 1 0 1h-1l1-1z"/>
    <path id="F" d="M36 6h-1a1 1 0 0 0 0 1h-1a1 1 0 0 1 0-1h1l1-1c0-1 0 0 0 0v1zm7 25a2 2 0 0 1 0-1v1a1 1 0 0 0 0 1 1 1 0 0 0-1 0v-2h1l-1 1h1zm2 0h-1v-1 1a1 1 0 0 0 0-1h2v1a1 1 0 0 0-1 0zm2-16h-1v-1 1a2 2 0 0 0 0-1h1a1 1 0 0 0 0 1zm26 9a6 6 0 0 1 1 0 1 1 0 0 0-1 0zm-8 2a1 1 0 0 1 1-1h1v1h-1zm-4-16v1c0 1 0 0 0 0a1 1 0 0 0 0-1m6 34a1 1 0 0 1 1 0 1 1 0 0 1-1 0zM48 11a1 1 0 0 0 0-1h-1 1v1zm-1 2v-1 1zm-2-9a4 4 0 0 1 1 0zm-17 9a1 1 0 0 1 0-1 1 1 0 0 1 0 1zm20-4a1 1 0 0 1 1 0 2 2 0 0 0-1 0zm-19 9a1 1 0 0 0-1 0 1 1 0 0 1 1 0zm7-12h1v1h-1V6zm17 16v-1a1 1 0 0 0 0 1zm-17 5zm39-6h1-1zm-6 4v1a1 1 0 0 1 0-1zm-3 4h-1 1zM45 12v-1zm-8-7a1 1 0 0 1 0 1h-1V5h1zm23 5zm-9-2zm-4-1V6h1v1h-1zm18 20h1-1zm-41-9h1-1zm51-2zm-30-3h-1 1zm-2 17zM42 4h1-1zm6 2V5v1zm26 11h1-1zm-6 5zm-5 4zm4-1zm7-8zm-46-1zm7-12v1h-1l1-1zm14 4zm19 20v1-1zm-14-9zm-17 1v1-1zm4 12zm-5-8zm8-11v1-1zm-6-8h-1 1zm28 21zm-1-1zm-29-2zm29 3h1-1zm3 6zm-32 2zm5-24h-1 1zm33 8h1a2 2 0 0 1-1 0zm-25-8h-1 1zm26 7v-1h1v1h-1zM37 30h1-1zm6-10zm8-5zm25 5zm-12 4zm-19-9h1-1zm17 13zm-25-5v1-1zM28 8h1-1zm40 19h-1 1zm1-1h1-1zM33 11zm31 1h1v1h-1v-1zm-3 0h1l-1 1v-1zm6 5h1-1zm2 11v1zm-2-1zm-1 9h1-1zm2-15zm-9 11v1l-1-1c0-1 0 0 0 0zM32 7h-1zm9 3V9a1 1 0 0 1 0 1zm29 22c-1 0-1 0 0 0zm2-8zm-2-3a1 1 0 0 1 0 1v-1zm6-4v1zM35 7zm-10 6h1-1zm22 15v-1 1zm19 0v1-1zm-3-2v-1 1zm-30 2h-1 1zm45-9zm-11 9zm0 1zm2-3v-1h1v1h-1zm0 0zM49 8l1-1v1h-1zm15 19v-1 1zm9-6zm8 2zm-7 4h1-1zm-1 1zM43 3h1-1zm7 6zm19 11zM40 6zm17 14zm-18-1v-1l1 1h-1zm32 3a1 1 0 0 1-1 0 1 1 0 0 1 1 0zM33 10zm18 6zm-9-1h1-1zm17 7zM38 35zm35-13v-1 1zm-6 2zm0-2zM26 12zm20-1a1 1 0 0 1 0 1zm26 9zm-35 1v-1 1zm41-2zm-10 7zm2-9zm-6 11h-1 1zM49 10zm8 0zm-22 5-1 1a2 2 0 0 1 0-1s0 0 1 0zm9-5h1-1zm32 19h1-1zM35 16zm0-7zm-2 16v-1 1zm37 1zm-4-2zm-31 3v-1h1v1h-1zm4-24zm3 4zm21 6zM43 39zm25-19v-1 1zm-41 3zm47-5v1a1 1 0 0 1 0-1zm-1 0zm-38 4v-1 1zm-6-3zm39 1v1-1zm-41-8h-1 1zm41 5zm0-5v1h-1v-1h1m1 9zM39 5zm-4-1zm32 22zm-38-5v-1l1 1h-1zm32-9h1a1 1 0 0 1-1 0zm-2 24zm7-6v-1 1zM28 19v-1zm43 6zm-8 3h-1zm15-9h-1v-1h1v1zm1 0zM40 9V8v1zM29 21zm8-16zm2 3zm23 21h1-1zm-32-3zm32-15h1-1zM32 25zm16-11v-1 1zm-11 6zm35 0v1-1zm2 1zm-9 5zm9-6zm-46-1zm15-4zm2-10zm24 14zm-20-7zm-4 1v1h-1v-1h1zm20 0zM35 5zm8 24zm10-17zm29 24v-1 1zM48 7V6v1zm1 19v-1 1zM38 13v-1 1zm3-7h-1 1zm-1 25h1-1zm34-9zm3-2zm-32 0zm22 4zM51 7zm15 21zm2-1zm-40-7zm48 0h-1 1zm-3 2v-1l1 1h-1zm-9 5h1-1 1zm5 6v-1 1zm9-15h-1m-44 9h1-1zm38-8zm-4 2h1-1zm6-3v-1 1zM51 38v1-1zM42 9h-1 1zm-8 1V9v1zm22 8zm11 5v-1 1zM38 4zm33 34v-1 1zM56 9zM37 23zM29 8zm8-4zm16 13h-1 1zm-24 9zm31-15v-1 1zm-36 2zm23 3zm6-6zm-20 2zm13-7V4h1v1h-1zm6 10zm-24-4v1-1zm38 3zM39 28zm1-8zm0-16h-1 1zm16 7zm9 13zm10-6zm-1 1zm1 0zM59 29zm14-12zM42 4zm6 31zm24-16h1-1zm9 3v-1 1zm-7 4zM29 12v1-1zm39 15c-1 0 0 0 0 0zm6-4zm-6 6zm6-4zM43 12zm23 13h1-1zm0 10h1-1zm-4-6v-1 1zm6-5zm1 1a1 1 0 0 1 0-1v1zm5-4h1-1zm7 17v-1 1zm0-1zM49 27zM40 5h-1V4l1 1h-1zm8 23h1-1zm-12-9zm-1 1zM47 7h1-1zm13 17h-1 1zM30 12h1-1zm29 27zm17-10v-1 1zm-18 7h1-1zm11-7zm-10 6h1-1zm16-4v1-1zM58 43h1-1zm-3-33v1zm28 20zm-4 3zm2 1zM42 5zm6 9zM36 24v-1 1zm6-15V8v1zm4-3zm2-1zm21 30zm-11-8zm7-14zM28 7h1-1zm28 12zm12 4v1l-1-1h1zm1-1zm-5-9zm10 6-1-1h1zM39 5zm27 12zM41 31zm30-14zm2-2zM56 26zm-14 8h1-1zm17-12v1-1zm-11 4v-1 1zm20-10zm-25 8v-1zm33-5h1-1c-1 0 0 0 0 0zm-8 9h1-1zm8-5zm-7 4zm-1-2zm-41-2v-1 1h-1zm37-11v-1 1zm-31-2V9h1l-1 1zm15-1zm25 11zm-1 3h1-1zM38 4h1-1zm32 19zm-34-6zm9-10V6v1zm-5 10v-1 1zm-14-4a1 1 0 0 1 0 1v-1zm21-3zm-17 4zm14-7zm-6 2zm1-3zm8 8h1-1zm-2 2zm-4-4zm7-5zM35 8zm22 0zm-25 2h1-1zm25 0V9zm-5-3zM38 6zm8 6zm19 26zm19-12zm-44 8zm23-15v-1 1zm-6 7h1-1c-1 0 0 0 0 0zm22 2zm4 7zM65 14zm-7 4zM42 28zm44 7v-1 1zM66 13zM40 33zm17-11zm21 12zm-5 7v-1 1zM59 31h1zm9-1a1 1 0 0 1 1 0h-1zm-12 8h1-1zm21-19zm-13 8v1-1zM44 40zm16-10zm12-9zm7 0zm-7 4zm-8 5h1-1zm15-8zm-9 3zm0 4zM42 39v-1 1zm33-22zm-3 2zM61 38zm1-11zm-2 1zm11-7zm-15 9zm15-10zM54 31zM33 5zm19 11zm2 2zm9-6zm-3 1zm-5 4zm4-7zm-6 4zm3-3zm-4 3zm-13 8zm3 0zm-6 3zm18-12zM33 6zm28 9v1-1zm-15 9zm15-9zM29 7zm27 11zM37 29zm-3-18zm47 11zM51 7zm33 27zm0-12zM37 9zm46 27zm3 0v-1 1zm-12 6v-1 1zm-16-6zm19-13zM59 35zm10-6h1-1zM25 17zm52 6v-1 1zm0 7v-1 1zm-4 6zm-15 8zm14-11zM46 8V7v1zm37 19zm-13 9zM39 8V7v1zm22 29zM34 13zm9-2zm28 21zm12-2h1-1zM43 9zm6 13zm-9-2zM32 5zm29 8h-1 1zm-7 4v-1a1 1 0 0 1 0 1zm-10-2zm12 5zm-13 6zm-8 5zm20-18zm-1 1zM35 26zm9-6zm-10 6v-1 1zm3 0zM32 6zm-2 2zm8 17zm20-13zm-15 9zm-13 6zm7-2zM24 15zm45 7zm-7 4zm3-2zm-6 4zm15-10zm-5 3zm3-3zM52 8zm18 11s0-1 0 0zm-1 0zm10 1a1 1 0 0 1 1 0zm-7 5zm-7 4zm12-8zm-12 7zm-1 0zm12-8v1h-1v-1h1zM59 31zm14-9zm-2 1zm4-3zm-28-9zm-1 19zm15-11zm-6 3zm10-7h1-1zm0 0zm-21-1h-1 1zm-19 0zm17-8zm-18 6zm2-3zm0 7zM43 5zM26 15zM44 4zm42 29zM58 10zm7 13h1zm-2 0zm9-6zm-16 3zm-3 10zm0-3zm13-5v-1h1v1zm0-8zm-30 7zm-7 4zm39-1zM53 9zm1 3zm21 28zM39 21zm22 5zm2-1zm-21-6zM58 8zM33 24zm48 13h-1 1zM38 20zm35 20h1zM57 16h1-1zM44 34zm17-11zm19 13zM55 20zm7-5zM41 28zm7-5zm29 15zM49 19v-1zm-8 4zm31 15zm2-23zm-6 5v-1 1zm12 14zM55 21zm15-3zm0-2zm-43 4zm49 3zm-39-9zm5-4zm25 6zm7 14zm-4-3zm11-1zm-54-7zm17 13zM26 22zm19-12zm40 13zm-55-4zM46 8zm-4 3zm32 14zM47 5zm-5 3zM25 19zm58 4zm-26 0zm6 11zm8-3v1zm-6 5v-1 1zM28 18zm56 19zm-45-2zm46-1zM55 8zm20 12v-1 1zm1-1zm7 8zM50 8zm26 22zm-6-4zM42 12zm-12 8zm47 2zm-10-7zM47 41zm-9-27zm12 11zm16 12v-1 1zM46 12h1-1zm0 0zm24 10zm3 1zm-43-2zm25 2zm-9-12zm30 29zm-15-3zm8-4zm9 2zm-11 3zm5-3zm1 0zm6-4zm-11 8zm14-1zm1 0zm-2 1h1zM40 19zm-2 1zm0 0zM55 9zm6 3zM36 4v1-1zm22 7zm-5 4zm-21 0zm12-7zM26 20zm17-10zm2-1zm-16 7zm11-6V9z"/>
    <path id="G" d="M45 13zM33 9zm10 6zm-4 3zm-7-7zm24 18zm14-9zM56 30zm6-5v1-1zm8-4zm7-3zm-13 4zm-9 6zm5-3zm11-6zM51 39zm12-8zm-9 8zm10-12zm10-5zm1 0zM59 33zm12-7zm-15-6zm6-8zM33 5zm32 7zm5 3zm-3 3zm-3 2zm5-2zm-1-3zm2-1zm-5 4z"/>
  </defs>
  <path d="m135 53 1-13-10-1-6-2-1-4-6-1-6-7 2-7-5-8V3L85 5 72 2l-7-2H1l1 17-2 34 2 29-2 21 1 7-1 28 19-2 10 2 4-1h102v-9l1-17-1-39z"/>
  <path fill="#ffbc00" d="M51 10a5 5 0 0 0-2 0h-4a9 9 0 0 0-2 1 2 2 0 0 1-1 0h-7l-1 1v19a25 25 0 0 0 1 3v17l1 6a18 18 0 0 0 0 2 2 2 0 0 0 1 1h2l2-1 2 1h2v-1a22 22 0 0 0 4 0 6 6 0 0 0 2 0l2-1v-3l-1-2a1 1 0 0 0-1-1h-5a1 1 0 0 0-1 0h-2v1h-2l1-12h4l2-1v-6h-4a16 16 0 0 1-2 0v-7l1-3v-5c0-1 0 0 0 0v-1a1 1 0 0 0 1 1h5l1-1a5 5 0 0 0 1 0v-8zm39 57a4 4 0 0 0-1 0h-3a8 8 0 0 0-2 1 1 1 0 0 1-1 0h-6l-1 1v16a20 20 0 0 0 1 3v15l1 4a18 18 0 0 0 0 2 2 2 0 0 0 1 1h1l2-1 2 1h1l1-1a21 21 0 0 0 3 0 5 5 0 0 0 1 0l2-1v-4a1 1 0 0 0-1-1h-7v1h-2l1-10h4l1-1v-6l-3 1a13 13 0 0 1-2-1l1-5v-8c0-1 0 0 0 0a1 1 0 0 0 1 1h4l1-1a4 4 0 0 0 1 0 286 286 0 0 1 0-2l-1-5zm28 1a4 4 0 0 0-2 0l-1 1s-7-2-8-1a7 7 0 0 0-2 1l-6 1-1 1-1 6 3 6 10 6 4 5-1 6c-2 2-7 2-7 3l-9-2h-1a4 4 0 0 0-1 0l1 2 1 5a4 4 0 0 0 1 0l2-1h1l3 2 3 1 6-1 1-2 4-3a5 5 0 0 0 0-3l2-8-5-7-7-5-3-3 2-3v-1a1 1 0 0 0 1 1h11c1 0 0 0 0 0v-2l-1-5zM29 10a5 5 0 0 0-2 0h-4a9 9 0 0 0-2 1 2 2 0 0 1-1 0h-7l-1 1v19a25 25 0 0 0 1 3v17l1 6a18 18 0 0 0 0 2 2 2 0 0 0 1 1h2l2-1v-6l1-12h4l2-1v-6h-4a16 16 0 0 1-2 0l1-7v-3l1-5h-1l1-1a1 1 0 0 0 0 1h6a5 5 0 0 0 1-1v-8zm49 18-4-11s-10-7-11-6a13 13 0 0 1-2 0 20 20 0 0 0-2 0l-2 1a4 4 0 0 0-1 1l1 7a12 12 0 0 0 0 2 39 39 0 0 1 0 5v14a41 41 0 0 0 1 5v7a13 13 0 0 0 1 2 8 8 0 0 0 2 3 5 5 0 0 0 2 1 28 28 0 0 0 4 1 33 33 0 0 0 5 0 14 14 0 0 0 2-1 8 8 0 0 0 2-1l3-4 2-7 1-12c0-3-4-5-4-7zm-5 20-5 4h-3l-1-4 1-8V22l3 1 4 7 2 8zm-2 20a4 4 0 0 0-1 0h-3a7 7 0 0 0-2 0 1 1 0 0 1-1 1h-6a1 1 0 0 1-1-1 7 7 0 0 0-2 0h-4a4 4 0 0 0-1 0v7a4 4 0 0 0 1 0h5l1 1v12l1 7v10l1 5a7 7 0 0 0 1 0h1a7 7 0 0 0 1 0 2 2 0 0 0 1 0v-5l1-2V82l1-2v-5h6a4 4 0 0 0 1 0v-2l-1-5zm-26 0h-6l-2 1 1 6v10a20 20 0 0 0 0 3v15l1 4a15 15 0 0 0 0 2 2 2 0 0 0 1 1h2l1-1 1-5V94l1-6V68zM29 89c0-3 3-6 3-8l-4-9-9-6a13 13 0 0 1-2 0h-2l-3 1a3 3 0 0 0 0 1v6a11 11 0 0 0 0 2 37 37 0 0 1 1 5v12a38 38 0 0 0 0 5 9 9 0 0 1 1 3v4a12 12 0 0 0 0 2 8 8 0 0 0 2 3 4 4 0 0 0 2 0 26 26 0 0 0 4 1 32 32 0 0 0 4 0 15 15 0 0 0 2 0 7 7 0 0 0 2-2 11 11 0 0 0 1-3l1-7-3-10zm-9-5a55 55 0 0 0 1-5l-1-8 5 6v10l-2 2-3 3a10 10 0 0 1 0-3v-5zm6 22h-7v-5l6-5v5l1 3zm84 15-5-1-31 2-10-2H41l-7 1H22a6 6 0 0 0-1 0h-2a3 3 0 0 0-2 0l-1 1-1 1 1 2a12 12 0 0 0 2 1 4 4 0 0 0 2 0h13a4 4 0 0 1 1 0 5 5 0 0 0 1 0h5l28 1 32-1h16l1-1 1-1h3l2-1h1l1-1-2-1-2-1h-4l-3 1z"/>
  <g class="E">
    <path d="M93 109h2v-1h1v1s0-1 0 0h1-1a1 1 0 0 0 0 1h-1v1-1c0-1 0 0 0 0h-1v1a1 1 0 0 1 0-1h-1a1 1 0 0 1-1 0h1v-1z"/>
    <path d="M92 112a1 1 0 0 0 0-1h1v-1h1l-1 1v1-1 1a1 1 0 0 1-1 0v1c0 1 0 0 0 0v-1zM78 90a2 2 0 0 1 0 1v-1a1 1 0 0 0 0-1 1 1 0 0 0 1 0v1a1 1 0 0 1 1 0v1h-1v-1h-1zm-2 1h1-1v-1h1v1-1h1v1h-1a2 2 0 0 0-1 0v1-1zm3 16h1v-1a1 1 0 0 1 0 1v1h-1v-1zm-28-2-1 1v-1a1 1 0 0 0 1 0zm7-4v1h-1a1 1 0 0 0 1-1zm8 14v-1a1 1 0 0 0 1 1h-1M51 84v1a1 1 0 0 1 0-1zm27 27h1-1zm1-2a1 1 0 0 0 0 1v-1zm4 7h1v1a4 4 0 0 1-1 0v-1zm15-13v1h-1a3 3 0 0 1 0-1h1zm-19 10zm16-14a1 1 0 0 0 1 0h-1zm-4 13a1 1 0 0 0 0-1 2 2 0 0 0 0 1zm-20-10v1-1zm15-10zm-36 16zm5-5v-1 1zm2-5zm24 11h1a1 1 0 0 1 0 1h-1v-1zm10 4zm-24 2zm10-1-1 1v-1h1zm3 1zm-22-15h-1 1zm42-3a1 1 0 0 1 0 1h-1v-1h1zm-48 16a1 1 0 0 1-1 0h1zm29-5h1-1zm-3-17zm8 24v1-1zm-6 1a1 1 0 0 1 1 0 1 1 0 0 1-1 0zm-28-4h-1 1zm4-6 1-1v1a1 1 0 0 1-1 0zm4-6zm-3 2v1h-1v-1h1zm-5 10h1-1zm45-12h-1 1zm-3 13h-1 1zm-15 0v1-1zM55 99v1l-1-1h1zm16 6h-1 1zm16-6h-1v-1h1v1zm-7-11v1h-1a2 2 0 0 0 0-1h1zm7 6v1-1zm-5 13zm8 7h1-1zm-33-13zm2 0v1h-1l1-1zm28-5zm-29 5zm-4-5zm30-11zm2 24zm-35 3a3 3 0 0 1 0-1h1l-1 1zm27 0a2 2 0 0 1 1 0h-1zm-27 1zm33-24h-1 1zm-3 11zm-6 8h-1a1 1 0 0 1 1 0zm-26 2zm11-8v1l-1-1zm20 4zm-19-8v1-1zm25-2v-1 1zm12 12zm-43-8h1-1c-1 0 0 0 0 0zm-1 2zm39 4v1-1zm-30 8h-1 1zm3-1h-1a1 1 0 0 1 1 0zm-8-3zm-4-10v-1zm2 0zm-2-8zm3 14v1l-1-1h1zm6-13zm33 17h-1a1 1 0 0 1 1 0zm-10 0zM52 97v-1 1zm0 8zm3 2v-1 1zm-5 5zm42-1v-1l1 1zm8-9v1-1zm-25-8v1-1zm-18 5zm3 2zm29-11zm-41 21v1h-1l1-1zm8-12v1h-1v-1h1zm-1 0zm-1 3v1-1zm1 0zm23 12v1-1zm-19-14h1-1zm-7 8zm-8 0h-1 1c1 0 0 0 0 0zm5-6zm1-1zm35 16zm-8-4zm-21-5zm32 5zm-20-9h-1 1zm17-3zm-31 6a1 1 0 0 1 0-1v1zm39 1v-1 1zm-18-1h-1 1zm8-2v1-1zm-18-1v-1 1zm17-19zm-30 22v1c0 1 0 0 0 0v-1zm5-4h-1zm0 3v-1zm43-3zm-19 7a1 1 0 0 1 0-1zm-28-1zm34-11zm-39 13h-1 1zm8-9zm0 9zm3-12v-1 1-1zm19 13zm-8 2zm21-11h-1 1zm-8 7v1h-1v-1zm-36-9v1h-1l1-1zm43 2v-1 1zm2 6zm-3-15zm-36 8zm5 1zm29-11h-1 1zm3 23v1-1 1zm-4-3v1-1zm-22 1zm12-31zm-18 26h-1zm37-15zm-43 18h-1 1zm1-1v1-1zm36-13zm6 1zm-38 9zm42-3zm-41 6zm1 5h1m-4-9v1a1 1 0 0 1 0-1zm33 8zm4-1v1-1zm-36-11h-1 1zm37-6v1-1zm-28 18h-1a1 1 0 0 1 1-1v1zm-5-24zm-5 8zm40 0zm-43 6h-1l1-1v1zm7-6zm-12 14zm-1-1v1-1zm40 0zm7-15zm-3 18zm-3-3zM60 97zm32-6zm-27 24v-1 1zm26-22zm-13 15zm9-9zm-34 9zm-2 0zm7-7h1-1zm-7 8h1-1zm45-12zm-14 8zm1 11h1-1zm-26-7zm21 1zm3-2v-1h1l-1 1zm-19 5zm31 0h-1 1zM79 92zm-6 19zM39 96v1-1zm41 19zm-6-18zm14 9zm-1 7zm-6-24v1h-1v-1h1zm-31 18h1v1l-1-1zm-2 3zm31-9zm-22 2zm20 12zM57 99zm-2 2h1-1zm41-5h-1 1zm-46 14zm1-3v1-1zm8-7h-1 1zm-6-4zm-4 16h-1 1m39-21zm-33 18h-1 1zm2-3zm-4 5zm16-26zm17 26h-1 1zm6-3c1 0 1 0 0 0zm-23-2zm-12-1zm33 9v1-1zM49 91h1-1zm23 24zm14-19zm12 13v-1 1zm-7 5zm-18-8zm20-15zm-26 23zm34-12zm-23 4h1-1zm-4 7zm19-7zm-11 10v1-1zm-8-8zm24-3zm-37 7zm22-20zm1 8zm5 15zm-18-2zm-12-10zm-8 8zm1-1h-1 1zm-1 1v-1 1zm12-14zm-10 15zm34 4zM72 88h1-1zm-19 22zm-9-1 1 1h-1v-1zm5-5zm48 0zm-42-3zm-4 5h-1zm4-7zm-5 6v-1 1zm33 4zm-26-6v-1 1zm-3-11v1-1zm7 6zm-5 5zm-1 0zm-4 5h-1 1zM40 94zm0 1s-1 0 0 0zm33 0zm16 20zM74 94v1-1zm14 6zm1-2zm-9 16zm-16-12v-1 1zm31 3zM60 87zm-13 14v1-1zm15-11zm-8 9zm7-8zm-14 8v-1 1zm13-16zm12 30zm-32-11zm3-4zm-2-1zm46 18zm-9-8v1-1zm9-12zm-2 17zm-3 3zm-1 2a1 1 0 0 1-1 0zM52 93v1zm13 5h-1zm-3 16zm37-5zm-30-4zm-13-1h1-1zm0 2zm7 7zm-11-3v1-1zm37 4zm-29-5v1-1zm20-20v1h-1v-1h1zm-25 22zm-2 3zm14-15zm11-12zm-13 16zm10-6zm-17 14zm22-14zm-31 14zm6-11h-1 1zm-6 7zm5-6zm2 2h-1a1 1 0 0 1 1 0zm40-9zm-33 21zm30-7zM79 113zm-27-4zm0-3zm38 9zm-36-10zm35-4zm-6 13zm2-11zm14-1zm-19 9zm15-8zm-12 10zm6-3zm0 3zm-11-5v-1 1zm3-3h-1 1zm4 3zm-5 6h-1 1zm12-4zm-21 6zm23-9zm-24 8zm6 1zm14-3h-1 1zm-10-4zM55 89v1-1zm-15 17zm40-20v1-1zm-18 22zm4-9h-1 1zm-22 4v-1 1zm-6-6zm24 15zm5-5zm13-14zm-44 5zm25 16zm19-27zm-13 16zm-23-6zm2-8zm16 5v1-1zm-8 4zm9-11c0 1 0 0 0 0zm-15 24zm10-12h1-1zm16-18zM62 96zm-9 11zm-7 2zm6-5zm6-7zm-12 12zm8-6zm-1-3zm24-17zm-26 29zm3-2zm5-22v1a1 1 0 0 0 0-1zm2 11zm1-2v1-1zm-8 10zm12-13zm-12 14zm13-15zm28 19zm-21-5zm-3-1v-1 1zm-7 8zm2-2zm5-5zm-2 7zm4-5zm-2 3v1-1zm3-3zm10-11zm-2 1zm4-5zm-14 16zm22 1zm-29-1zm12-13zm-11 14h-1v-1l1 1zm32-2zm-29-3zm15-15zm8 16zm-48 2zm33 6zM38 98zm3 12zm49-1zM38 97c0-1 0 0 0 0zm-2 0c0 1 0 0 0 0zm9-9c-1 0 0 1 0 0zm18 1s-1 0 0 0zm-16 18zm15-16zm-9 8zm31 18h1m15-19v1-1zm-53 10zm-1-7zm2-7zm12-13zM50 96zm32 17v1-1zm-41-8zm10-12zm38 18zM59 89zm32 16zm-8 4v1-1zM51 97zm-12 5zm46 9zm-9-11h-1c-1 0 0 0 0 0h1zm9 0zm11 12zm-30 0zm5-5zm10-1zm-12-2zm10-9zm7-7zm-14 22zm0-1v1-1c0-1 0 0 0 0zm15-16zm-7 8zm8-8zm-3 0zm11 18zm1-2zM85 95zm-16 18zm12-13v-1zm11-10zm-7 5zm15 5zm-45 6zm6-6zm-2 2v1-1zm5-5zm-12 14zm4-4zm-2 3v1-1zm22 4v1-1zm-21-5v1-1zm1 0zm-10 2zm6-7zm6-6zm-10 11zm10-10zm0 0h1zm-8 10zm13-15zm-11 13zm1-2zm-2 4h-1 1zm29 2v-1 1zm-4-19zm-12 15zm5-5zm-8 10zm1 0h-1 1zm20-6zm18-4zm-14 12zm15-11zm0 3zm-2-6zm-14 16zm14-15zm-14 15zm-49-16zm33 15zm-10-11zm2-1zm-7 8zm14-7zm1-10h-1 1zm1 2zm-12 10zm2 6zm28-14zm5-6zm-37 12zm18 10zm-1-2zM45 90zm40 9v-1 1zm-23 1zm-2 1v1-1zm23 1zm-13 14zm19-22zm-49 1zm46 4zm-40-9zm22 19zm8-22zm-13 16zm-22-8zm28 9h1zm-5 7zm17-18zm-5 6zm-33-6zm33 11zm6-7zm-34-6zm4 23zm5-6zM42 97zm27 6zm-14 7zm1 2zm40-16v1zm-48 11zm41-2zm-4 4zm-26 2zM48 99zm5 2zm-10 5zm54-9zm-20-7zm20 4zm-15 17zm-42-2zm54-11zm-13 15zm4-4zm-35-5zm31 13zm4-5h1zm14-15zm-57 12zm25-8zm-9-8zm-7 4zm5-5zm40 7zm-59-3zm44-11zM37 98zm36 18zm-22-6zm-1 1zm-9-6zm37 9zm-31-14zm6 3zm31 5zm9-11zm-45 11zm11 4zm12-30zm17 23zm-15-7zm-19-7zm26 19zm1-1zm-27-3zm-3 0zm42-10zm-24 5zm12 9zM44 91zm15-2zm-7 7zm-8-1v1-1zm9-5zm-4 4zm-1 0zm-4 5zm8-10zm-13 5zm-1 0zm1-1zm45 8zm2-2zm0 0zm-14 16zm-6-1zm26 0zm-23-1zm4-4zm20-6zm-10 10zm15-18zm-14 15zm-2 2zm14-11zm-9 9zm-6-2zm13 0zm-12-2zm4-4zm8 5zM66 96zm-11 12zm11-13zm-5 6zm-7 6zm-5 5v-1 1zm11-7zm8-9zm-5 5zm-8 9zm14-26zM58 95zm7-10zm-6 14zm-9 8zm0 0zm12-14zm-9 10zm16 1zm-4 10zm30-1zm-32 2zm-7-2zm3-4zm2-3zm-4 4zm1 2v1-1zm-1 2zm4-5z"/>
  </g>
  <g class="E" clip-path="url(#A)">
    <use xlink:href="#E"/>
    <use xlink:href="#F"/>
    <use xlink:href="#G"/>
  </g>
  <g class="E" clip-path="url(#B)">
    <use xlink:href="#E"/>
    <use xlink:href="#F"/>
    <use xlink:href="#G"/>
  </g>
  <g class="E" clip-path="url(#C)">
    <use xlink:href="#E"/>
    <use xlink:href="#F"/>
    <use xlink:href="#G"/>
  </g>
  <g fill="#ffbc00" class="E" clip-path="url(#D)">
    <path d="M5 28v1zm0 33v1c0 1 0 0 0 0zm0-6zm0 34zm0 28zm0-98zm0-2zm129 12v-1zM5 111zm129 6zm0-81zM5 36zm129-17zm0-2zm0 72zm0-34zM5 113zm129-2zM49 13h-1a1 1 0 0 1 1-1 1 1 0 0 1 0 1zm59 84h-1 1zm-82 30h1-1zm98-9a1 1 0 0 0-1 0 1 1 0 0 1 1 0h-1v-1h1v1c0 1 0 0 0 0zm9-59v-1 1h-1 1zM6 114H5l1-1v1zm0 0zm106-69h1v1a1 1 0 0 0-1-1zm-5 30a3 3 0 0 0 1 0v1h-1a1 1 0 0 1 0-1zM37 7h-1V6h1v1zM15 55v-1 1zm78 46h-1 1zM50 14a1 1 0 0 0 1 0v1h-1v-1zm19 75v1l-1-1h1zm40-55h-1a1 1 0 0 0 1 0zm-8-27zM51 9h1v1h-1V9zM8 82a1 1 0 0 1 0 1 3 3 0 0 0-1 0 2 2 0 0 1 1-1zm117 29v1-1zm-110-9h1-1zm45-29h1-1zM15 88h1a1 1 0 0 1-1 0zm83-75h-1a1 1 0 0 1 1 0zm-71 98h-1 1zm70-40h-1v-1 1h1zM14 61h-1a1 1 0 0 1 1-1v1zm-4-28v1H9l1-1zm114 37v1l-1-1v1-1a1 1 0 0 0 1 0zM36 4a1 1 0 0 0 1-1v1c0 1 0 0 0 0h-1zm73 12h-1v-1l1 1zm-32-3a1 1 0 0 1 0 1 5 5 0 0 1 0-1zm-53 93h1a1 1 0 0 1-1 0zM101 5v1h-1V5l1 1zm13 61c-1 0-1 0 0 0zm-82 60h1zm95-85h-1 1v1-1zm-1 75v-1a1 1 0 0 0 0 1zm-19-70-1 1v-1h1zm5 15a1 1 0 0 0 0 1v-1zM18 87v-1a1 1 0 0 0 0 1zm56 1h1-1 1c1 0 0 0 0 0zm-6-76h-1a1 1 0 0 0 1 0zM30 121v-1zm79-69h-1a1 1 0 0 1 0-1 2 2 0 0 1 1 1zM23 84h-1a1 1 0 0 1 1 0h-1 1zM52 6h-1a3 3 0 0 0 1-1v1zM29 128h-1v-1h1v1zm35-66v-1 1zm46-17h1a2 2 0 0 1-1 0zM59 3h1a1 1 0 0 0 0 1h-1a1 1 0 0 0 0-1zm71 24h-1 1zm-21 50h1a1 1 0 0 0-1 0zm-9 34h-1 1zM18 21v-1a2 2 0 0 0 0 1zm82-6zM70 47a2 2 0 0 0 1 0h-1zM89 0zm41 6zM13 57h-1 1zm26 4zm64-55V5v1zm12 102h1-1zm-89 22zm17-29v1h-1a1 1 0 0 0 1-1zM12 13a1 1 0 0 1 1 0h-1zm66 86a2 2 0 0 0 0 1v-1zm42 32zm-108 0zm1-6v-1l1 1h-1zm113-77h-1 1zM98 70v1l-1-1a1 1 0 0 1 1 0zm11-51v1-1zM66 90v1-1zm31 27v1l-1-1h1zM48 13v-1a1 1 0 0 1 0 1zm0 61zm-35 44h1-1v1a1 1 0 0 0 0-1zm83-78zM46 85a1 1 0 0 0 1 0h-1zm60-71zM95 58a1 1 0 0 0 0-1v1zM13 12zm100 30v1a3 3 0 0 1 0-1zM12 62h-1 1zm115 48v1-1zm-86-8zm66-82zm19 34a2 2 0 0 0-1 0h1zM12 131zM106 5h1zM36 3zm7 129h-1 1zM19 78v-1 1zm4-14h1-1zm97-60v1l-1-1h1zM38 4h-1 1zm0 129zm-12-15v1-1zm0 8zM131 3zM10 82v-1 1zm120-67a1 1 0 0 1 0-1 1 1 0 0 1 0 1zm-23 44zm-6-50h-1a1 1 0 0 1 1 0v1zm-2 8zm-64 89zm96-27zm-1 30zM37 9a1 1 0 0 1 1-1 1 1 0 0 0-1 1zm59 107zm15-12v1-1zM73 34zm30 33v-1zm-75 41v1h-1v-1h1zm35 1h-1 1zm44 6zm-75-2h-1 1zM6 78v1-1zm92-7zm5 1a1 1 0 0 0-1 0 2 2 0 0 0 1 0zm-85 43zm112-37zm-11 4v1a1 1 0 0 1 0-1zM46 43zm6 42zM19 41zm59-29v1-1zM38 5V4v1zm3-5v1-1zm73 0zm-1 46zM28 68zm-10 8v-1 1zm-6-18zm83 50zM8 90zm101-55h-1 1zm17 79h1-1zM47 76h1-1zM24 99v1-1zm39-15h-1v-1h1v1zM10 9H9V8h1v1zm1-1h-1 1zm101-7V0v1zm12 0V0v1zm2 4zm0 110h-1 1zM9 63zm-2-2H6a1 1 0 0 1 1 0zm109 59zM70 31a1 1 0 0 1-1 0 2 2 0 0 1 1 0zM39 7v1-1zm-8 105zm95-2h-1 1zm-22-65v1-1zM13 57zm48 15v1a1 1 0 0 1 0-1zm-26 55zm83-46zM42 56a1 1 0 0 1 1 0h-1zm33 29zm-55-5zm102 43zM44 10zm80 38h1-1zm-13 16zm22-32a1 1 0 0 1 0 1v-1zM30 118v1zm31 17v1-1zM8 60zm101-6zm11 27zm-79 20h-1 1zm91 10v1-1zM64 79a1 1 0 0 1 1 0h-1zm51-6zM52 85v-1 1zm-22 37zM68 13zm45 41zM16 76h-1 1zM56 4zm6 84zm-3-4h-1 1zM92 4V3v1zm31 128v1a1 1 0 0 1 0-1zM98 61v-1 1zm34-4v-1 1zM73 13h-1 1zM65 3zm-1 81zm62-38zm-85 88h-1zM121 2zM17 121zM37 2zm12 6V7v1zm48 3zM41 5h1-1zM18 122h-1a1 1 0 0 1 1 0zM68 11zm-34 93h1l-1 1v-1zm44-67h-1 1zM32 57v1-1zm78-3h-1 1zM50 5zm-38 9zm55 81zm37-27zm30-58h-1 1zm-69 0zm41 51zM78 51h1zm-49 67a1 1 0 0 1 0 1v-1zm49-18zm30-83h1-1zm1 6zm-40 9v1-1zM14 12v-1 1zm0 112zm-1-61v-1 1zm107 17zM87 38zm-71 84zm-9-6zm65-30zm20 29v1-1zm6-77zM10 20zM88 6v1-1zm-72 99zm0-85v1a1 1 0 0 1-1 0v-1h1zM60 7zm40 124zM94 9v1-1zm-19 1zm47 113h1-1zM6 89zm31 35zm3-113a1 1 0 0 1-1 0h1-1zm25 77-1 1v-1h1zm30-35a2 2 0 0 1 0 1 1 1 0 0 1 0-1zm-80 73zm98-61zm-70-1v1-1zm-17 61zm95 4zM95 7zM9 20H8h1zM72 8V7c0-1 0 0 0 0v1zm49 113zm-88 0v1a1 1 0 0 1 0-1zm63-35zM58 8zM10 89zm94-73h1-1zm2-1v1a2 2 0 0 1 0-1zM7 77zm123 10v-1 1zM98 9a1 1 0 0 1-1 0zm-18 6zm32 42zm-84 52h-1 1zm68-14zm16-37zm-6-7zm18 32zm-97 31v1-1zm75-40a1 1 0 0 1-1 1v-1h1zm-49 9h-1 1zm-14 17zm24-26h-1a1 1 0 0 1 1 0zm33-34v1-1zm-13 0zM47 57zM16 40zm55 34zm30-35zm-77 73zm44-39h1-1zm26 28zM48 73h-1 1zm61-23h-1 1zm22 62v1-1zm-31-40a1 1 0 0 1 0 1v-1zM92 4h-1zM67 28zM13 91zm59-11v-1 1zm-46 28h-1zM116 5zM51 134h1a1 1 0 0 1-1 0zM23 52zm91-7h1a1 1 0 0 1-1 0zM93 5h1zm15 55zM71 1zm-3 30h-1c-1 0 0 0 0 0h1zm-7 38h1-1zm7 67h-1 1zM14 98zm2-5zm56-48zM37 6l-1-1h1v1zm72-1v1-1zm6 56zM10 124zm69-86h1-1zM11 13zm90 35h1a1 1 0 0 1-1 0zm-51 7a1 1 0 0 1-1 0zM21 96v1-1zm-9-74zm0-9zm40 51zM11 99v-1 1zm59 0v1-1zM7 54zm93 45h1-1zm-67 12h-1zm20-94zm8 91h1-1zm-9 14zm35-13zm-57 6zm-3 0zm-13-11zm40 11v-1h1l-1 1zM32 93v-1 1zM8 32zm62-1h1-1zM40 14h1-1zm90 16zm2-1c-1 0 0 0 0 0zm-62 0zm1 8zm62 77v-1a1 1 0 0 1 0 1zM43 20zm-28 93zm94-9zM42 55zm40-17zm40 13-1 1v-1h1zm-33 66a1 1 0 0 1 0 1v-1zM28 96h-1 1zM51 4zm77 0zm-3 1zM70 132v-1 1zm9-56h-1 1c1 0 0 0 0 0zM58 6a1 1 0 0 1-1 0h1zM33 6h-1 1zM11 76h-1 1c1 0 0 0 0 0zm36 0h-1 1zM64 7h1-1zm-1 0zM39 129zM131 8h-1 1zM88 8zM48 9V8v1zm52 63h-1 1zM62 82zm-41 1zm32 0zm9-10zm67-72zM63 1zm1 76h-1 1zm-27 50zm-24-1a1 1 0 0 1 0 1s0-1 0 0zm0-60zm1 60v1-1zM11 9zm94 0h-1 1zm7 69zM70 67zM37 9h1-1zM7 109zm16 0zm78-70zM25 81zm30-26v1-1zm-34 1v-1 1zm60 18zm-42 27c0-1 0 0 0 0zM5 111zm112-59zM25 81zm75-25h-1v-1l1 1zm-43 0zm7-15zm-49-1zm25 0zm64 71zM84 52zM28 97v-1zm16-41zm25-15zm6 69v1-1zM58 74zM38 58v-1 1zm83-1v1-1zM59 82zm59 0zm-45-4zm25-41zm-64 76h-1 1zm64-18zm-8-58zM48 57zm-8 0zm34-19h1-1zM50 73zm-2-16zm-12 43zM17 51zm-7-13h1l-1 1v-1zm31 74h-1 1zm70-31zM45 39zM36 100v1-1zm89 5zm-84-1v-1 1zm47-1v1-1zm-2-49zm-44-5h-1 1zm60-3zm-57 0zm22 52 1 1h-1v-1zm29 8zm20-31zm-96 2v-1 1zm109-29zm-82 0zm26-1c0 1 0 0 0 0h1-1zm-38 57zm12-57zm65 0zm-92 58zm27-58zm-31 58zm102-50zm-18-12zm-82 0zm97 66zm5-67v1-1c0-1 0 0 0 0zm-7 0-1 1v-1h1zM58 55zm65-5zm-5 28zM68 97v-1 1zM45 80zm61-35zm-58 0zm19 0zm-41 61zm100 0h-1 1zM50 55v-1 1zm-20 52zm74-63h-1 1zm-31 0zm31 58zm-8 6v-1 1zm-85-9zM120 4zm-7 0zm19 114zm-10 5zm-34-5zM68 14zm58-10zm3 130zM98 3zm30 131zM62 3zm12 6v1-1zM128 134zM87 29h-1 1zm13-20zm32 20h1zm-13-19V9v1zm0 57zm-5-65zM98 69zM19 92zM7 10zm17 117zM60 11zm68 0zM58 70zm49-38zm25-16h-1 1zm-53 2v1h-1v-1h1zm39 99zM71 32zM11 19zm113 102h1-1zm-52 8h1-1c-1 0 0 0 0 0zM75 9c1 0 1 0 0 0zm48 58zM22 121v-1 1zm24-36v1-1zm-27 45c-1 0-1 0 0 0zm7 0zM11 9zm3 12zM71 9zm4 122zm31-110zm28 40zM54 89zm-41 30zm63 12zm33-108zm1-4zm-10-4h1-1zM66 61zm-23 71zM81 5zm0 0h-1 1zM44 5zm75 127h-1 1zM47 7zm6 78zm-36 6zm107 41h-1 1zm-15-74zm18 68zm-28-11zM22 83zM6 34zM99 115zm-8 0zM77 34zm2 0zm-2 0h1-1zm55 0zm-32 81zM51 35zm-8 80h1-1zm79-32h-1zm2 31v1h-1v-1h1zM14 13zm57-5zm0 28zm-5-23zm31 82c1 0 0-1 0 0zm-67 19zM12 36zm95-4zm10-32zm-6 63zm-72 54zm93-31h1-1zm1-54zM86 0zM16 122zm57-38v-1 1zM8 8zm40-8h-1 1zm29 93zm25-76zM68 136zm65-103zM18 95v-1 1zm44 21zm-27 12zm63-45zm10-18h1-1zM44 33zm46 89zm6-89zm9-21zm-66-1v1-1zm39 83h-1 1zm4 22zm12 0zM35 77h-1 1zM13 67zm51 21zm-12 0zm13-23h-1 1zm-41-1zm19 1zM15 99zm48-21zm70 9v1-1zm-2-24h1-1zM89 99h1zM10 77zm56-12v1-1zm9 24h-1 1zm51-36zM86 99zm27-33zM76 98zm21-44zM56 92zm50-18zm-3-19zM80 92zm25-33zM68 96v1-1zM48 74zm0 0zm-26 7zm47 12zm-52 1zm111-20zM61 94zm35 0zm-19 2zm-7 0zM47 73zm22-2zm51 1zM96 95zm35-13v-1 1zM15 58zm112 21zM14 67zm30 9zm-30-9zm28 23v-1zm24 0zm15 8zm-44 0zm47-44zm30 22zM32 97zm96-12zm-93 6h1-1zm90-23zM76 91zm49-16v-1 1zm-69 9zm24 8zM44 55zm7 14zm41-9zM70 84zm-49 33zm40 0zm10-89c0 1 0 0 0 0v1-1zm37 90zm-95 1h1-1zm97-96zm-52-6zm14 0zm23 20zm25 77zm-110 0zm44 0zm13 0v1-1zm-3-80zm8-1zm-8 83zm29 0zM75 33v-1 1zm-34 0v-1 1zm-5 84zm72-85zm-75 95zm87 1zm-63 6zM99 9zM54 2zm21 7zM59 134zm39-6zm33 5zM53 8zm2 124zM61 8zm53 121zm-84 3zm67-3zm7 1 1-1v1zM35 5h-1c-1 0 0 0 0 0h1zm17 1V5zm19 11zM16 122h-1zm35 1zM37 13zM9 125zm59 0zm0 0v1-1zm-27 10zm72-123h-1 1zm-78 0zm10-1h1-1zm66 0zm14 95v-1 1zm0-60zm-38 0zm42-3zm-16-1zm-36 0zm-58 58zm29-49h1-1zm75-1v1-1c1-1 0 0 0 0zm-38 51zm38-51zM16 50zm0-1zm65 54zm-4 0zm-66 0zm86 1zm32-57zM53 37zm-7 0zM6 112zm3-73h1-1zm46 1h-1 1s-1 0 0 0zm54 0zm18 71zm-52 0h-1c-1 0 0 0 0 0zM65 78zm-21 0zm48 6zm-43 51zm5 0zm10-1zM27 84zm-7-3v1c0 1 0 0 0 0v-1zm25 3zm0 47zm1 3zm30-2zm49-54zm-9 2zm-17 4zm-41-6zm-2 54zM13 78zm116 5zm-54-1zm-10-3zm22 0zm-61 4zm-9-1zm56-3h-1 1zm-20 4v1-1zm24 52zM53 83zm-10 53zm24-55zm-43 1-1-1 1 1zm106-3zm-26 4zM75 111zm40 0zm-19 1v-1 1zM69 96zm27 16zm34 0zM31 95zm-6 0zm70 17zm-30 1zm30-18zm-71 19v-1 1zm6-19zm30 0zm-42 19zM24 114zm-12 0zm-2 0H9h1zm81 1zm-56 1zm40 0zM37 94zm-9 0h-1 1zm89 23zM64 93zm-28 24zm48 0zm-3 0zM6 101zm37 0zm-10 1zm45-3zm11 0zm-35 3zm-43 1zm3 1zm19-6zm61 6zm-82-6zm73 7zm40 0zm0 0zm-56 1zm41 1zM23 97h-1 1zm56 10zm-49 0zm44 1zm41 0zm-5 1zM80 97v-1 1zm-35 12zm-5 0zm3 0zm59 1zM102 110zm-64 0zm78 13zm-62 1zm-45 1zM9 125zm56 0zm-56 0zm-1 0zm7-37zm17 38zm96 0zm-111 0zm111 1zM41 87zm58 41s0-1 0 0zM18 87zm53 41zm0-42zm-47 42zm71-42zm-39 0zm63 0zm-81 42zm4 1h-1 1zM15 86h1-1zm-6 43zm61 1zm-32 0zm33 1zm24-14zM74 92zm-57 25zm61-25zm-25-1zm-4 27zm75 0zm-75 0zm44 0zm-46 1zm26-28zm-24 28zm-10 0zm10 0zm18-29h-1 1s-1 0 0 0zm-57 29zm0 0zm115 1zm-37 1zm34 0zM23 90zm92 31zm-79 1zM5 90zm37-1zm74 33zM46 89zm5 34zm10-72zm-47 1zm82 0zM35 3zm56 0zM5 53zM31 3zm95-1zM98 1zm9-1zm11 0zm7 54v-1zm-80 0zm85-7zm1 0zM88 6zm12 42zm-59 1zm0 0zM69 5s0 1 0 0zM17 49zM55 5zm40 45zm26 0zM101 5zm20 45zM46 5zm67-1c0 1 0 1 0 0zm-11 47zM6 59zm0 0zm118 0zm-37 1zm-45 1zm-18 0zm65 0zm23 0zM12 62zm23 0c0 1 0-1 0 0zm87-7zm-55 0zm-4 2zm40 0zm-55 0zm-8 0zm68 0zm-59 1v-1c0-1 0 0 0 0v1zm78 0zm2 0zM18 58zm60-24zM17 14zm48 20zm11 0zm2 0zm0 0zm31 1zm-26 1s0-1 0 0zm19-23zM85 36h1-1zm-32 0zm2 0h-1 1zm15 0zm23-23zm34 0zm-86 0zm4 10zm-5 1zm20-2zm-14 0zm86 5zm-2 0zm3-7zm-7 9zM10 19zm93-1zM41 33zM5 33zm39 0zm10 1zm-7 8zm18 0zM87 9zM69 43zm-3 0zm-31 0zm-11 1zm73 0zm-79 1zm94-38zM91 7zm32 39zm-60 0zm22-9h-1 1zm-50 1zm3-1v1-1zm55 1zm-56 1zm1 0zm37 1zM40 11zm86 0h-1 1zM82 40zm0 0zM54 11zm9 30zm45 0zm-15 0zM45 11zm41 30zm-7-31zM35 42zm77 29h1-1zm-66 0zm23 0zm-15 0zm43 0h-1 1zm-62 0zm28 0v-1 1zm17-1zm0 0zm0 0zm-19 0zm-19-2zm18 0zm44 0h-1 1zm-50-1zm69 0zm-68 0zm-41 0zm78 0zm-49-1zm23-1zm-6 0zm20 12zm2 0zm-49 0h-1v-1zm28-2zm-3 0zm27-1s-1 0 0 0zm43-1zm-40 0zm36 0zm-76 0zm36-1zM37 62zm-17 2zm38-2zm41 1zm-4 0zm32-51zM38 124zM37 13zm0 111zm2-111zM26 127zm41 0zm-41 0zm-2 0zM71 9zm34 3zM13 127v-1 1zm72-7zM47 20zm-4 100v1-1zm35 1zm46 0zM10 19H9c1 0 1 0 0 0zm105 102zM75 17zm-10 5zm-19 0zm88 97zm-3 0zm2-99zM41 120zm72 3zm20-107zm-49 0zm-40-1v1-1zM16 122zm90-107h-1v1zm-90 0zm7 108zM59 3zm48-3zm0 0zm22 4c-1 0 0 0 0 0zm-22 128zm-38 0zM36 3v1-1zM17 133zM12 8zm103 121zm0 0zM125 7zM91 7zm23 0zm-14 2zm-1 0zM75 9zm14-1zm27 121zM101 5zM53 5zm23 126zM81 5zm33 125zm-75 0zm0 0zM130 6zM51 6zM26 90zm46 1zM48 60zm84 0zm-94 0zm77-1zm-12 34zm-41-5zm7 1zm-15 0zm1-26zm14 26zm-26 0zm-1 0zm56 0zm0 1zm-81 0zm95-29zm13 29zM86 56zm-40 0zm-24 0zm46 41zm-8-43zm5 43zm-33 0zM15 54zm70 0zM37 98zm47-44zm16-1zM76 98a1 1 0 0 0 0 1v-1zm16-45h1-1zM73 93zm48-34zM84 93zM65 59zm31 34zm-76 1zm45-36zm13 37zm51-37zm-8-1zm-26 0zm-63 0zm101 23zM33 74zm48 6zm15 0zm31-6zm-82 6zm37 0zm-20-7zm-2 0zm53 4zm-48 0zm-52 1zm0 0zm75-1zm-7 0zm-13 0zm12-1zm41-1zm-10 4zm-66 1zM30 69zm0 0zm-7 15zm7-15h-1zm95-1zm-80 0zm1 17zm22-17zm57-2zm-32 0zM25 87zm101 0zM22 66zm7 0zm79-1zM50 88zm25 0zm43-6zM48 72zm-2 0zm28 10zm-52 1zm110 0zM23 84zm13-47zm90 77zM60 36zm-33 78zm44-78zm20-1zm-4 1zm-43 79zm24-1v1-1zm23-79zm18 0zm-30 0zm11 80zm9 0h-1 1zM65 34zM6 34zm2 5zm113 0zm-69 0zm27-1zm-68 0zm10 74zm70 0zm10 1zM62 37zm-10 0zm46 0zm-12-8zm-21 0zm-2 88zm8-89zm55 0zM13 118zm3-93zm26 94zm1 0zm25 0zm22-4zm14-81zm-69-1zm54 0zm-14 0zm-41-1zm37 0zm36-1v1-1zm-16 0zm-19 0zm-19-1zm-11 71zm53-52zm-52 53zm33 0zM16 49zm7 0zm51-1zm-3 0zm-24-1zm65 0zm-22 6zm8-1zM76 99zm2 0zm12 0zM51 52zm51-1zm-76 50zm67 0zM43 43zm76 65zM69 43zm32-1zm-33 0zm-5-1zm-36 70zm-7-71zm62 0zm-12 7zm14 58zm41-59zm-51-1zm-60 61zm10 0zm43-61zm50 61zm-2-62zm-15 0zm-63 0z"/>
  </g>
</svg>
